<mxfile host="app.diagrams.net" agent="Mozilla/5.0 (Windows NT 10.0; Win64; x64) AppleWebKit/537.36 (KHTML, like Gecko) Chrome/131.0.0.0 Safari/537.36" version="25.0.3">
  <diagram name="Page-1" id="rsrO_qsVBBs48CDE-rz8">
    <mxGraphModel dx="1434" dy="772" grid="1" gridSize="10" guides="1" tooltips="1" connect="1" arrows="1" fold="1" page="1" pageScale="1" pageWidth="850" pageHeight="1100" math="0" shadow="0">
      <root>
        <mxCell id="0" />
        <mxCell id="1" parent="0" />
        <mxCell id="oKY1oZcPVrAcZEKdn4Te-12" style="edgeStyle=orthogonalEdgeStyle;rounded=0;orthogonalLoop=1;jettySize=auto;html=1;exitX=0.5;exitY=1;exitDx=0;exitDy=0;entryX=0.5;entryY=0;entryDx=0;entryDy=0;" edge="1" parent="1" source="oKY1oZcPVrAcZEKdn4Te-2" target="oKY1oZcPVrAcZEKdn4Te-3">
          <mxGeometry relative="1" as="geometry" />
        </mxCell>
        <mxCell id="oKY1oZcPVrAcZEKdn4Te-2" value="start" style="ellipse;whiteSpace=wrap;html=1;" vertex="1" parent="1">
          <mxGeometry x="330" y="20" width="120" height="80" as="geometry" />
        </mxCell>
        <mxCell id="oKY1oZcPVrAcZEKdn4Te-13" style="edgeStyle=orthogonalEdgeStyle;rounded=0;orthogonalLoop=1;jettySize=auto;html=1;exitX=0.5;exitY=1;exitDx=0;exitDy=0;entryX=0.5;entryY=0;entryDx=0;entryDy=0;" edge="1" parent="1" source="oKY1oZcPVrAcZEKdn4Te-3" target="oKY1oZcPVrAcZEKdn4Te-8">
          <mxGeometry relative="1" as="geometry" />
        </mxCell>
        <mxCell id="oKY1oZcPVrAcZEKdn4Te-3" value="int a,i;" style="shape=parallelogram;perimeter=parallelogramPerimeter;whiteSpace=wrap;html=1;fixedSize=1;" vertex="1" parent="1">
          <mxGeometry x="330" y="150" width="120" height="60" as="geometry" />
        </mxCell>
        <mxCell id="oKY1oZcPVrAcZEKdn4Te-11" style="edgeStyle=orthogonalEdgeStyle;rounded=0;orthogonalLoop=1;jettySize=auto;html=1;exitX=0;exitY=0.5;exitDx=0;exitDy=0;entryX=0;entryY=0.25;entryDx=0;entryDy=0;" edge="1" parent="1" source="oKY1oZcPVrAcZEKdn4Te-4" target="oKY1oZcPVrAcZEKdn4Te-8">
          <mxGeometry relative="1" as="geometry">
            <Array as="points">
              <mxPoint x="210" y="393" />
              <mxPoint x="210" y="250" />
            </Array>
          </mxGeometry>
        </mxCell>
        <mxCell id="oKY1oZcPVrAcZEKdn4Te-4" value="if a%i==0" style="rhombus;whiteSpace=wrap;html=1;" vertex="1" parent="1">
          <mxGeometry x="300" y="318" width="180" height="150" as="geometry" />
        </mxCell>
        <mxCell id="oKY1oZcPVrAcZEKdn4Te-6" value="true" style="text;html=1;align=center;verticalAlign=middle;resizable=0;points=[];autosize=1;strokeColor=none;fillColor=none;" vertex="1" parent="1">
          <mxGeometry x="405" y="468" width="40" height="30" as="geometry" />
        </mxCell>
        <mxCell id="oKY1oZcPVrAcZEKdn4Te-7" value="sprint i" style="strokeWidth=2;html=1;shape=mxgraph.flowchart.display;whiteSpace=wrap;" vertex="1" parent="1">
          <mxGeometry x="340" y="530" width="100" height="60" as="geometry" />
        </mxCell>
        <mxCell id="oKY1oZcPVrAcZEKdn4Te-14" style="edgeStyle=orthogonalEdgeStyle;rounded=0;orthogonalLoop=1;jettySize=auto;html=1;exitX=0.5;exitY=1;exitDx=0;exitDy=0;entryX=0.5;entryY=0;entryDx=0;entryDy=0;" edge="1" parent="1" source="oKY1oZcPVrAcZEKdn4Te-8" target="oKY1oZcPVrAcZEKdn4Te-4">
          <mxGeometry relative="1" as="geometry" />
        </mxCell>
        <mxCell id="oKY1oZcPVrAcZEKdn4Te-8" value="i = i + 1" style="rounded=0;whiteSpace=wrap;html=1;" vertex="1" parent="1">
          <mxGeometry x="330" y="240" width="120" height="40" as="geometry" />
        </mxCell>
        <mxCell id="oKY1oZcPVrAcZEKdn4Te-10" value="false" style="text;html=1;align=center;verticalAlign=middle;resizable=0;points=[];autosize=1;strokeColor=none;fillColor=none;" vertex="1" parent="1">
          <mxGeometry x="255" y="338" width="50" height="30" as="geometry" />
        </mxCell>
        <mxCell id="oKY1oZcPVrAcZEKdn4Te-16" style="edgeStyle=orthogonalEdgeStyle;rounded=0;orthogonalLoop=1;jettySize=auto;html=1;exitX=0.5;exitY=1;exitDx=0;exitDy=0;entryX=0.5;entryY=0;entryDx=0;entryDy=0;entryPerimeter=0;" edge="1" parent="1" source="oKY1oZcPVrAcZEKdn4Te-4" target="oKY1oZcPVrAcZEKdn4Te-7">
          <mxGeometry relative="1" as="geometry" />
        </mxCell>
      </root>
    </mxGraphModel>
  </diagram>
</mxfile>
